<svg version="1.1" id="Слой_1" xmlns="http://www.w3.org/2000/svg" xmlns:xlink="http://www.w3.org/1999/xlink" x="0px" y="0px"
	 viewBox="-268 384.1 67.9 68.5" style="enable-background:new -268 384.1 67.9 68.5;" xml:space="preserve">
<style type="text/css">
	.st0{fill:#FFFFFF;}
</style>
<g>
	<path class="st0" d="M-200.2,420.3c0-0.6-0.5-1-1-1c-0.6,0-1,0.5-1,1c0.2,5.3-3.9,9.7-9.2,9.9c-0.6,0-1,0.5-1,1
		c0,0.3,0.1,0.5,0.3,0.7s0.4,0.3,0.7,0.3C-204.9,432.1-200,426.7-200.2,420.3z"/>
	<path class="st0" d="M-204.8,419.1c0-0.6-0.5-1-1-1c-0.6,0-1,0.5-1,1c0.1,1.7-0.6,3.4-1.7,4.7c-1.2,1.3-2.8,2-4.6,2.1
		c-0.6,0-1,0.5-1,1c0,0.3,0.1,0.5,0.3,0.7c0.2,0.2,0.4,0.3,0.7,0.3c2.3-0.1,4.4-1.1,6-2.7S-204.7,421.4-204.8,419.1z"/>
	<path class="st0" d="M-239.2,386.1c0.6,0,1-0.5,1-1c0-0.6-0.5-1-1-1c-6.4,0.2-11.4,5.6-11.1,12c0,0.3,0.1,0.5,0.3,0.7
		c0.2,0.2,0.4,0.3,0.7,0.3c0.6,0,1-0.5,1-1C-248.6,390.8-244.4,386.3-239.2,386.1z"/>
	<path class="st0" d="M-236.5,389.4c0-0.6-0.5-1-1-1c-2.3,0.1-4.4,1.1-6,2.7s-2.4,3.9-2.3,6.1c0,0.3,0.1,0.5,0.3,0.7
		c0.2,0.2,0.4,0.3,0.7,0.3c0.6,0,1-0.5,1-1c-0.1-1.7,0.6-3.4,1.7-4.7c1.2-1.3,2.8-2,4.6-2.1C-236.9,390.5-236.4,390-236.5,389.4z"/>
	<circle class="st0" cx="-252.6" cy="437.8" r="2"/>
	<path class="st0" d="M-207.4,407.4l-18.5-17.1c-1.8-1.7-4.6-1.5-6.2,0.2l-34.8,37.5c-1.7,1.8-1.5,4.6,0.2,6.2l18.5,17.1
		c1.8,1.7,4.6,1.5,6.2-0.2l34.8-37.5C-205.5,411.9-205.6,409.1-207.4,407.4z M-216.4,403.1l0.7,0.7c0.4,0.4,0.4,1,0.1,1.4
		s-1,0.4-1.4,0.1l-0.7-0.7c-0.4-0.4-0.4-1-0.1-1.4S-216.9,402.8-216.4,403.1z M-221.6,398.4l2.9,2.7c0.4,0.4,0.4,1,0.1,1.4
		c-0.4,0.4-1,0.4-1.4,0.1l-2.9-2.7c-0.4-0.4-0.4-1-0.1-1.4S-222,398-221.6,398.4z M-255.4,440.7c-1.6-1.5-1.7-4-0.2-5.7
		s4-1.7,5.7-0.2s1.7,4,0.2,5.7C-251.2,442.1-253.7,442.2-255.4,440.7z M-236.9,442.8l-22-20.4l25.8-27.9l22,20.4L-236.9,442.8z"/>
</g>
</svg>
