<svg xmlns="http://www.w3.org/2000/svg" x="0px" y="0px" viewBox="0 0 512 512">
    <path d="M0,20v472h512V20H0z M482,462H30V140h452V462z M482,110H30V50h242v30h30V50h30v30h30V50h30v30h30V50h60V110z" fill="#FFFFFF"/>
    <path d="M256,185c-63.962,0-116,52.037-116,116s52.038,116,116,116s116-52.037,116-116S319.962,185,256,185z M256,387 c-47.42,0-86-38.579-86-86c0-0.612,0.034-1.216,0.046-1.824c0.953-18.73,16.491-33.676,35.454-33.676    c19.575,0,35.5,15.925,35.5,35.5c0,36.117,29.383,65.5,65.5,65.5c1.826,0,3.629-0.095,5.418-0.242    C296.87,379.171,277.338,387,256,387z M306.5,336.5c-19.575,0-35.5-15.925-35.5-35.5c0-36.117-29.383-65.5-65.5-65.5    c-1.826,0-3.629,0.095-5.418,0.242C215.13,222.829,234.662,215,256,215c47.42,0,86,38.579,86,86c0,0.612-0.034,1.216-0.046,1.824    C341.001,321.554,325.463,336.5,306.5,336.5z" fill="#FFFFFF"/>
</svg>